<svg width="180" height="54" viewBox="0 0 180 54" fill="none" xmlns="http://www.w3.org/2000/svg">
<path opacity="0.1" fill-rule="evenodd" clip-rule="evenodd" d="M54 27C54 41.9117 41.9117 54 27 54C12.0883 54 0 41.9117 0 27C0 12.0883 12.0883 0 27 0C41.9117 0 54 12.0883 54 27ZM27 51C40.2548 51 51 40.2548 51 27C51 13.7452 40.2548 3 27 3C13.7452 3 3 13.7452 3 27C3 40.2548 13.7452 51 27 51Z" fill="#283645"/>
<g clip-path="url(#clip0_35858_264)">
<path fill-rule="evenodd" clip-rule="evenodd" d="M35.5875 22.711C35.712 22.3015 35.5875 22 34.9913 22H33.0225C32.5215 22 32.2905 22.2603 32.1652 22.5475C32.1652 22.5475 31.164 24.9445 29.7458 26.5015C29.2867 26.953 29.0782 27.0963 28.8278 27.0963C28.7025 27.0963 28.5142 26.953 28.5142 26.5428V22.711C28.5142 22.219 28.3763 22 27.9593 22H24.8632C24.5505 22 24.3622 22.228 24.3622 22.4448C24.3622 22.9105 25.0718 23.0185 25.1445 24.3295V27.178C25.1445 27.8028 25.0297 27.916 24.7792 27.916C24.1117 27.916 22.488 25.5078 21.5243 22.7522C21.3375 22.216 21.1485 22 20.6452 22H18.675C18.1125 22 18 22.2603 18 22.5475C18 23.059 18.6675 25.6 21.1087 28.9608C22.7362 31.2558 25.0275 32.5 27.1147 32.5C28.3665 32.5 28.521 32.224 28.521 31.7478V30.013C28.521 29.4603 28.6395 29.35 29.0363 29.35C29.3287 29.35 29.829 29.494 30.9975 30.6003C32.3325 31.912 32.5523 32.5 33.3038 32.5H35.2725C35.835 32.5 36.117 32.224 35.955 31.678C35.7765 31.135 35.139 30.3468 34.2938 29.4115C33.8348 28.879 33.1463 28.3053 32.937 28.018C32.6453 27.6498 32.7285 27.4855 32.937 27.1578C32.937 27.1578 35.337 23.8383 35.5868 22.711H35.5875Z" fill="#D22856"/>
</g>
<path opacity="0.1" fill-rule="evenodd" clip-rule="evenodd" d="M117 27C117 41.9117 104.912 54 90 54C75.0883 54 63 41.9117 63 27C63 12.0883 75.0883 0 90 0C104.912 0 117 12.0883 117 27ZM90 51C103.255 51 114 40.2548 114 27C114 13.7452 103.255 3 90 3C76.7452 3 66 13.7452 66 27C66 40.2548 76.7452 51 90 51Z" fill="#283645"/>
<path d="M97.7035 21.202L95.3269 32.4099C95.1475 33.2007 94.68 33.3976 94.0157 33.0252L90.3943 30.3567L88.6472 32.0375C88.4537 32.231 88.2923 32.3924 87.9193 32.3924L88.1798 28.7047L94.891 22.6404C95.1829 22.3805 94.8274 22.2359 94.4376 22.4964L86.1407 27.7209L82.5688 26.6026C81.792 26.3602 81.778 25.8258 82.7308 25.4529L96.7016 20.0703C97.3485 19.8279 97.9144 20.2143 97.7035 21.2026V21.202Z" fill="#D22856"/>
<path opacity="0.1" fill-rule="evenodd" clip-rule="evenodd" d="M180 27C180 41.9117 167.912 54 153 54C138.088 54 126 41.9117 126 27C126 12.0883 138.088 0 153 0C167.912 0 180 12.0883 180 27ZM153 51C166.255 51 177 40.2548 177 27C177 13.7452 166.255 3 153 3C139.745 3 129 13.7452 129 27C129 40.2548 139.745 51 153 51Z" fill="#283645"/>
<path d="M147.834 33.8089C147.646 33.9278 147.425 33.9941 147.196 33.9996C146.968 34.0051 146.743 33.9495 146.549 33.8398C146.355 33.7301 146.201 33.571 146.106 33.3824C146.011 33.1938 145.979 32.984 146.014 32.779V22.221C145.979 22.016 146.011 21.8062 146.106 21.6176C146.201 21.429 146.355 21.2699 146.549 21.1602C146.743 21.0505 146.968 20.9949 147.196 21.0004C147.425 21.0059 147.646 21.0722 147.834 21.1911L160.233 26.6928C161.256 27.1382 161.256 27.8618 160.233 28.3072L147.834 33.8089Z" fill="#D22856"/>
<defs>
<clipPath id="clip0_35858_264">
<rect width="18" height="18" fill="white" transform="translate(18 18)"/>
</clipPath>
</defs>
</svg>
